<svg xmlns="http://www.w3.org/2000/svg" width="1040" height="760" viewBox="0 0 1040 760">
    <defs>
    <marker id="arrow-blue" markerWidth="12" markerHeight="12" refX="10" refY="6" orient="auto" markerUnits="strokeWidth"><path d="M 1 1 L 11 6 L 1 11 Z" fill="#2563eb"/></marker><marker id="arrow-green" markerWidth="12" markerHeight="12" refX="10" refY="6" orient="auto" markerUnits="strokeWidth"><path d="M 1 1 L 11 6 L 1 11 Z" fill="#00b894"/></marker><marker id="arrow-orange" markerWidth="12" markerHeight="12" refX="10" refY="6" orient="auto" markerUnits="strokeWidth"><path d="M 1 1 L 11 6 L 1 11 Z" fill="#f59e0b"/></marker><marker id="arrow-red" markerWidth="12" markerHeight="12" refX="10" refY="6" orient="auto" markerUnits="strokeWidth"><path d="M 1 1 L 11 6 L 1 11 Z" fill="#ef4444"/></marker><marker id="arrow-purple" markerWidth="12" markerHeight="12" refX="10" refY="6" orient="auto" markerUnits="strokeWidth"><path d="M 1 1 L 11 6 L 1 11 Z" fill="#7c3aed"/></marker><marker id="arrow-gray" markerWidth="12" markerHeight="12" refX="10" refY="6" orient="auto" markerUnits="strokeWidth"><path d="M 1 1 L 11 6 L 1 11 Z" fill="#9aa8b5"/></marker>
  </defs>
    <style>text{dominant-baseline:middle}.small{font-size:14px}</style>
    <text x="520" y="44" text-anchor="middle" font-family="'Times New Roman','SimSun'" font-size="32" font-weight="800" fill="#17212b"><tspan x="520" dy="0">微信小程序订单详情页</tspan></text>
    
    <rect x="380" y="95" width="380" height="630" rx="42" fill="#1f2937"/>
    <rect x="400" y="125" width="340" height="570" fill="#f3f4f6"/>
    <rect x="400" y="125" width="340" height="58" fill="#2f2f2f"/>
    <text x="570" y="154" text-anchor="middle" font-family="'Times New Roman','SimSun'" font-size="16" font-weight="700" fill="white"><tspan x="570" dy="0">订单详情</tspan></text>
    
    <rect x="425" y="170" width="290" height="92" rx="10" fill="white"/><text x="439" y="194" text-anchor="start" font-family="'Times New Roman','SimSun'" font-size="16" font-weight="700" fill="#17212b"><tspan x="439" dy="0">订单已完成</tspan></text><text x="439" y="222" text-anchor="start" font-family="'Times New Roman','SimSun'" font-size="14" font-weight="400" fill="#17212b"><tspan x="439" dy="0">配送方式：配送到家</tspan></text><text x="439" y="246" text-anchor="start" font-family="'Times New Roman','SimSun'" font-size="14" font-weight="400" fill="#ef4444"><tspan x="439" dy="0">骑手：骑手调度员 13812312315</tspan></text>
    <rect x="425" y="282" width="290" height="178" rx="10" fill="white"/><text x="439" y="306" text-anchor="start" font-family="'Times New Roman','SimSun'" font-size="16" font-weight="700" fill="#17212b"><tspan x="439" dy="0">订单明细</tspan></text><text x="439" y="334" text-anchor="start" font-family="'Times New Roman','SimSun'" font-size="14" font-weight="400" fill="#17212b"><tspan x="439" dy="0">元气满满单人果切果汁餐 x1</tspan></text><text x="439" y="358" text-anchor="start" font-family="'Times New Roman','SimSun'" font-size="14" font-weight="400" fill="#17212b"><tspan x="439" dy="0">配送费 ￥6.00</tspan></text><text x="439" y="382" text-anchor="start" font-family="'Times New Roman','SimSun'" font-size="14" font-weight="400" fill="#ef4444"><tspan x="439" dy="0">实付 ￥26.90</tspan></text>
    <rect x="425" y="480" width="290" height="138" rx="10" fill="white"/><text x="439" y="504" text-anchor="start" font-family="'Times New Roman','SimSun'" font-size="16" font-weight="700" fill="#17212b"><tspan x="439" dy="0">配送信息</tspan></text><text x="439" y="532" text-anchor="start" font-family="'Times New Roman','SimSun'" font-size="14" font-weight="400" fill="#17212b"><tspan x="439" dy="0">测试用户 13800138000</tspan></text><text x="439" y="556" text-anchor="start" font-family="'Times New Roman','SimSun'" font-size="14" font-weight="400" fill="#17212b"><tspan x="439" dy="0">常工鲜生测试地址8号</tspan></text><text x="439" y="580" text-anchor="start" font-family="'Times New Roman','SimSun'" font-size="14" font-weight="400" fill="#ef4444"><tspan x="439" dy="0">订单号 1780816700503</tspan></text>
    <rect x="432" y="645" width="105" height="34" rx="17" fill="#fff" stroke="#9aa8b5"/><text x="485" y="662" text-anchor="middle" font-family="'Times New Roman','SimSun'" font-size="14" font-weight="400" fill="#17212b"><tspan x="485" dy="0">再来一单</tspan></text>
    <rect x="560" y="645" width="105" height="34" rx="17" fill="#00b894"/><text x="613" y="662" text-anchor="middle" font-family="'Times New Roman','SimSun'" font-size="14" font-weight="400" fill="white"><tspan x="613" dy="0">查看状态</tspan></text>
  
  
  </svg>