<svg xmlns="http://www.w3.org/2000/svg" width="1020" height="560" viewBox="0 0 1020 560">
    <defs>
    <marker id="arrow-blue" markerWidth="12" markerHeight="12" refX="10" refY="6" orient="auto" markerUnits="strokeWidth"><path d="M 1 1 L 11 6 L 1 11 Z" fill="#2563eb"/></marker><marker id="arrow-green" markerWidth="12" markerHeight="12" refX="10" refY="6" orient="auto" markerUnits="strokeWidth"><path d="M 1 1 L 11 6 L 1 11 Z" fill="#00b894"/></marker><marker id="arrow-orange" markerWidth="12" markerHeight="12" refX="10" refY="6" orient="auto" markerUnits="strokeWidth"><path d="M 1 1 L 11 6 L 1 11 Z" fill="#f59e0b"/></marker><marker id="arrow-red" markerWidth="12" markerHeight="12" refX="10" refY="6" orient="auto" markerUnits="strokeWidth"><path d="M 1 1 L 11 6 L 1 11 Z" fill="#ef4444"/></marker><marker id="arrow-purple" markerWidth="12" markerHeight="12" refX="10" refY="6" orient="auto" markerUnits="strokeWidth"><path d="M 1 1 L 11 6 L 1 11 Z" fill="#7c3aed"/></marker><marker id="arrow-gray" markerWidth="12" markerHeight="12" refX="10" refY="6" orient="auto" markerUnits="strokeWidth"><path d="M 1 1 L 11 6 L 1 11 Z" fill="#9aa8b5"/></marker>
  </defs>
    <style>text{dominant-baseline:middle}.small{font-size:14px}</style>
    <text x="510" y="44" text-anchor="middle" font-family="'Times New Roman','SimSun'" font-size="32" font-weight="800" fill="#17212b"><tspan x="510" dy="0">订单生命周期状态图</tspan></text>
    <circle cx="50" cy="237" r="14" fill="#17212b"/><rect x="90" y="210" width="125" height="58" rx="18" fill="#fff" stroke="#00b894" stroke-width="2"/><text x="152.5" y="240" text-anchor="middle" font-family="'Times New Roman','SimSun'" font-size="17" font-weight="700" fill="#17212b"><tspan x="152.5" dy="0">待付款</tspan></text><text x="152.5" y="268" text-anchor="middle" font-family="'Times New Roman','SimSun'" font-size="12" font-weight="400" fill="#536471"><tspan x="152.5" dy="0">创建订单</tspan></text><rect x="270" y="210" width="125" height="58" rx="18" fill="#fff" stroke="#00b894" stroke-width="2"/><text x="332.5" y="240" text-anchor="middle" font-family="'Times New Roman','SimSun'" font-size="17" font-weight="700" fill="#17212b"><tspan x="332.5" dy="0">待接单</tspan></text><text x="332.5" y="268" text-anchor="middle" font-family="'Times New Roman','SimSun'" font-size="12" font-weight="400" fill="#536471"><tspan x="332.5" dy="0">支付确认</tspan></text><rect x="450" y="210" width="125" height="58" rx="18" fill="#fff" stroke="#00b894" stroke-width="2"/><text x="512.5" y="240" text-anchor="middle" font-family="'Times New Roman','SimSun'" font-size="17" font-weight="700" fill="#17212b"><tspan x="512.5" dy="0">已接单</tspan></text><text x="512.5" y="268" text-anchor="middle" font-family="'Times New Roman','SimSun'" font-size="12" font-weight="400" fill="#536471"><tspan x="512.5" dy="0">门店处理</tspan></text><rect x="630" y="210" width="125" height="58" rx="18" fill="#fff" stroke="#00b894" stroke-width="2"/><text x="692.5" y="240" text-anchor="middle" font-family="'Times New Roman','SimSun'" font-size="17" font-weight="700" fill="#17212b"><tspan x="692.5" dy="0">配送中</tspan></text><text x="692.5" y="268" text-anchor="middle" font-family="'Times New Roman','SimSun'" font-size="12" font-weight="400" fill="#536471"><tspan x="692.5" dy="0">骑手配送</tspan></text><rect x="810" y="210" width="125" height="58" rx="18" fill="#fff" stroke="#00b894" stroke-width="2"/><text x="872.5" y="240" text-anchor="middle" font-family="'Times New Roman','SimSun'" font-size="17" font-weight="700" fill="#17212b"><tspan x="872.5" dy="0">已完成</tspan></text><text x="872.5" y="268" text-anchor="middle" font-family="'Times New Roman','SimSun'" font-size="12" font-weight="400" fill="#536471"><tspan x="872.5" dy="0">履约结束</tspan></text><path d="M 64 237 H 90" fill="none" stroke="#00b894" stroke-width="2.5" marker-end="url(#arrow-green)"/><path d="M 215 237 H 270" fill="none" stroke="#00b894" stroke-width="2.5" marker-end="url(#arrow-green)"/><path d="M 395 237 H 450" fill="none" stroke="#00b894" stroke-width="2.5" marker-end="url(#arrow-green)"/><path d="M 575 237 H 630" fill="none" stroke="#00b894" stroke-width="2.5" marker-end="url(#arrow-green)"/><path d="M 755 237 H 810" fill="none" stroke="#00b894" stroke-width="2.5" marker-end="url(#arrow-green)"/><circle cx="970" cy="237" r="18" fill="none" stroke="#17212b" stroke-width="2.5"/><circle cx="970" cy="237" r="10" fill="#17212b"/><path d="M 935 237 H 952" fill="none" stroke="#00b894" stroke-width="2.5" marker-end="url(#arrow-green)"/><path d="M 152 268 V 390 H 435" stroke="#ef4444" stroke-width="2.2" fill="none" marker-end="url(#arrow-red)"/><text x="505" y="372" text-anchor="middle" font-family="'Times New Roman','SimSun'" font-size="15" font-weight="400" fill="#ef4444"><tspan x="505" dy="0">用户取消 / 超时未支付 / 商家拒单</tspan></text><rect x="435" y="420" width="150" height="65" rx="18" fill="#fef2f2" stroke="#ef4444" stroke-width="2"/><text x="510" y="450" text-anchor="middle" font-family="'Times New Roman','SimSun'" font-size="18" font-weight="700" fill="#17212b"><tspan x="510" dy="0">已取消</tspan></text><text x="510" y="478" text-anchor="middle" font-family="'Times New Roman','SimSun'" font-size="14" font-weight="400" fill="#536471"><tspan x="510" dy="0">订单关闭</tspan></text>
  </svg>